<mxfile host="app.diagrams.net" modified="2023-05-25T20:37:13.946Z" agent="Mozilla/5.0 (Windows NT 10.0; Win64; x64) AppleWebKit/537.36 (KHTML, like Gecko) Chrome/113.0.0.0 Safari/537.36" etag="i3ShgGSi48VLKi8QQe_S" version="21.3.2" type="device">
  <diagram name="Page-1" id="F8XsfotjiwT__aJ1X_9N">
    <mxGraphModel dx="1955" dy="1678" grid="1" gridSize="10" guides="1" tooltips="1" connect="1" arrows="1" fold="1" page="1" pageScale="1" pageWidth="850" pageHeight="1100" math="0" shadow="0">
      <root>
        <mxCell id="0" />
        <mxCell id="1" parent="0" />
        <mxCell id="v11jur0-lVE0EKOWLeCB-1" value="App_user" style="whiteSpace=wrap;html=1;align=center;" parent="1" vertex="1">
          <mxGeometry x="-130" y="90" width="100" height="40" as="geometry" />
        </mxCell>
        <mxCell id="v11jur0-lVE0EKOWLeCB-2" value="school" style="whiteSpace=wrap;html=1;align=center;" parent="1" vertex="1">
          <mxGeometry x="470" y="90" width="100" height="40" as="geometry" />
        </mxCell>
        <mxCell id="v11jur0-lVE0EKOWLeCB-6" value="books" style="whiteSpace=wrap;html=1;align=center;" parent="1" vertex="1">
          <mxGeometry x="530" y="490" width="100" height="40" as="geometry" />
        </mxCell>
        <mxCell id="v11jur0-lVE0EKOWLeCB-9" value="borrow" style="shape=rhombus;perimeter=rhombusPerimeter;whiteSpace=wrap;html=1;align=center;" parent="1" vertex="1">
          <mxGeometry x="150" y="270" width="110" height="50" as="geometry" />
        </mxCell>
        <mxCell id="v11jur0-lVE0EKOWLeCB-21" value="1" style="endArrow=none;html=1;rounded=0;" parent="1" source="v11jur0-lVE0EKOWLeCB-92" target="v11jur0-lVE0EKOWLeCB-1" edge="1">
          <mxGeometry x="-0.6634" y="-11" relative="1" as="geometry">
            <mxPoint x="10" y="370" as="sourcePoint" />
            <mxPoint x="260" y="370" as="targetPoint" />
            <mxPoint as="offset" />
          </mxGeometry>
        </mxCell>
        <mxCell id="v11jur0-lVE0EKOWLeCB-22" value="1" style="endArrow=none;html=1;rounded=0;" parent="1" source="v11jur0-lVE0EKOWLeCB-92" target="v11jur0-lVE0EKOWLeCB-91" edge="1">
          <mxGeometry x="-0.5385" y="-15" relative="1" as="geometry">
            <mxPoint x="-50" y="400" as="sourcePoint" />
            <mxPoint x="-50" y="480" as="targetPoint" />
            <mxPoint as="offset" />
          </mxGeometry>
        </mxCell>
        <mxCell id="v11jur0-lVE0EKOWLeCB-23" value="password" style="ellipse;whiteSpace=wrap;html=1;align=center;" parent="1" vertex="1">
          <mxGeometry x="-10" y="-220" width="80" height="30" as="geometry" />
        </mxCell>
        <mxCell id="v11jur0-lVE0EKOWLeCB-24" value="username" style="ellipse;whiteSpace=wrap;html=1;align=center;" parent="1" vertex="1">
          <mxGeometry x="65" y="-245" width="90" height="35" as="geometry" />
        </mxCell>
        <mxCell id="v11jur0-lVE0EKOWLeCB-26" value="belong to" style="shape=rhombus;perimeter=rhombusPerimeter;whiteSpace=wrap;html=1;align=center;" parent="1" vertex="1">
          <mxGeometry x="140" y="80" width="120" height="60" as="geometry" />
        </mxCell>
        <mxCell id="v11jur0-lVE0EKOWLeCB-27" value="" style="endArrow=none;html=1;rounded=0;entryX=0;entryY=0.5;entryDx=0;entryDy=0;shape=link;" parent="1" source="v11jur0-lVE0EKOWLeCB-26" target="v11jur0-lVE0EKOWLeCB-2" edge="1">
          <mxGeometry relative="1" as="geometry">
            <mxPoint x="215" y="50" as="sourcePoint" />
            <mxPoint x="255" y="340" as="targetPoint" />
          </mxGeometry>
        </mxCell>
        <mxCell id="v11jur0-lVE0EKOWLeCB-37" value="stores" style="shape=rhombus;perimeter=rhombusPerimeter;whiteSpace=wrap;html=1;align=center;" parent="1" vertex="1">
          <mxGeometry x="520" y="220" width="120" height="60" as="geometry" />
        </mxCell>
        <mxCell id="v11jur0-lVE0EKOWLeCB-42" value="N" style="endArrow=none;html=1;rounded=0;exitX=0.5;exitY=1;exitDx=0;exitDy=0;entryX=0.5;entryY=0;entryDx=0;entryDy=0;" parent="1" source="v11jur0-lVE0EKOWLeCB-37" target="v11jur0-lVE0EKOWLeCB-6" edge="1">
          <mxGeometry x="-0.8825" y="-12" relative="1" as="geometry">
            <mxPoint x="180" y="510" as="sourcePoint" />
            <mxPoint x="720" y="610" as="targetPoint" />
            <mxPoint as="offset" />
          </mxGeometry>
        </mxCell>
        <mxCell id="v11jur0-lVE0EKOWLeCB-45" value="" style="endArrow=none;html=1;rounded=0;" parent="1" source="v11jur0-lVE0EKOWLeCB-23" target="v11jur0-lVE0EKOWLeCB-91" edge="1">
          <mxGeometry relative="1" as="geometry">
            <mxPoint x="160" y="520" as="sourcePoint" />
            <mxPoint x="-100" y="504.5454545454545" as="targetPoint" />
          </mxGeometry>
        </mxCell>
        <mxCell id="v11jur0-lVE0EKOWLeCB-46" value="" style="endArrow=none;html=1;rounded=0;" parent="1" source="v11jur0-lVE0EKOWLeCB-24" target="v11jur0-lVE0EKOWLeCB-91" edge="1">
          <mxGeometry relative="1" as="geometry">
            <mxPoint x="160" y="520" as="sourcePoint" />
            <mxPoint x="-68.33333333333348" y="520" as="targetPoint" />
          </mxGeometry>
        </mxCell>
        <mxCell id="v11jur0-lVE0EKOWLeCB-48" value="request" style="shape=rhombus;perimeter=rhombusPerimeter;whiteSpace=wrap;html=1;align=center;" parent="1" vertex="1">
          <mxGeometry x="80" y="320" width="100" height="50" as="geometry" />
        </mxCell>
        <mxCell id="v11jur0-lVE0EKOWLeCB-51" value="title" style="ellipse;whiteSpace=wrap;html=1;align=center;" parent="1" vertex="1">
          <mxGeometry x="900" y="690" width="100" height="40" as="geometry" />
        </mxCell>
        <mxCell id="v11jur0-lVE0EKOWLeCB-53" value="cover" style="ellipse;whiteSpace=wrap;html=1;align=center;" parent="1" vertex="1">
          <mxGeometry x="590" y="800" width="100" height="40" as="geometry" />
        </mxCell>
        <mxCell id="v11jur0-lVE0EKOWLeCB-55" value="page_count" style="ellipse;whiteSpace=wrap;html=1;align=center;" parent="1" vertex="1">
          <mxGeometry x="810" y="780" width="100" height="40" as="geometry" />
        </mxCell>
        <mxCell id="v11jur0-lVE0EKOWLeCB-56" value="publisher" style="ellipse;whiteSpace=wrap;html=1;align=center;" parent="1" vertex="1">
          <mxGeometry x="870" y="740" width="100" height="40" as="geometry" />
        </mxCell>
        <mxCell id="v11jur0-lVE0EKOWLeCB-58" value="isbn" style="ellipse;whiteSpace=wrap;html=1;align=center;fontStyle=4;" parent="1" vertex="1">
          <mxGeometry x="470" y="780" width="100" height="40" as="geometry" />
        </mxCell>
        <mxCell id="v11jur0-lVE0EKOWLeCB-59" value="authors" style="ellipse;shape=doubleEllipse;margin=3;whiteSpace=wrap;html=1;align=center;" parent="1" vertex="1">
          <mxGeometry x="900" y="630" width="100" height="40" as="geometry" />
        </mxCell>
        <mxCell id="v11jur0-lVE0EKOWLeCB-60" value="keywords" style="ellipse;shape=doubleEllipse;margin=3;whiteSpace=wrap;html=1;align=center;" parent="1" vertex="1">
          <mxGeometry x="900" y="565" width="100" height="40" as="geometry" />
        </mxCell>
        <mxCell id="v11jur0-lVE0EKOWLeCB-61" value="summary" style="ellipse;whiteSpace=wrap;html=1;align=center;" parent="1" vertex="1">
          <mxGeometry x="850" y="520" width="100" height="40" as="geometry" />
        </mxCell>
        <mxCell id="v11jur0-lVE0EKOWLeCB-62" value="categories" style="ellipse;shape=doubleEllipse;margin=3;whiteSpace=wrap;html=1;align=center;" parent="1" vertex="1">
          <mxGeometry x="700" y="800" width="100" height="40" as="geometry" />
        </mxCell>
        <mxCell id="v11jur0-lVE0EKOWLeCB-63" value="" style="endArrow=none;html=1;rounded=0;exitX=0.59;exitY=-0.075;exitDx=0;exitDy=0;exitPerimeter=0;" parent="1" source="v11jur0-lVE0EKOWLeCB-58" target="v11jur0-lVE0EKOWLeCB-6" edge="1">
          <mxGeometry relative="1" as="geometry">
            <mxPoint x="540" y="640" as="sourcePoint" />
            <mxPoint x="700" y="640" as="targetPoint" />
          </mxGeometry>
        </mxCell>
        <mxCell id="v11jur0-lVE0EKOWLeCB-64" value="" style="endArrow=none;html=1;rounded=0;" parent="1" source="v11jur0-lVE0EKOWLeCB-53" target="v11jur0-lVE0EKOWLeCB-6" edge="1">
          <mxGeometry relative="1" as="geometry">
            <mxPoint x="579" y="757" as="sourcePoint" />
            <mxPoint x="704" y="660" as="targetPoint" />
          </mxGeometry>
        </mxCell>
        <mxCell id="v11jur0-lVE0EKOWLeCB-65" value="" style="endArrow=none;html=1;rounded=0;" parent="1" source="v11jur0-lVE0EKOWLeCB-62" target="v11jur0-lVE0EKOWLeCB-6" edge="1">
          <mxGeometry relative="1" as="geometry">
            <mxPoint x="658" y="810" as="sourcePoint" />
            <mxPoint x="722" y="660" as="targetPoint" />
          </mxGeometry>
        </mxCell>
        <mxCell id="v11jur0-lVE0EKOWLeCB-66" value="" style="endArrow=none;html=1;rounded=0;" parent="1" source="v11jur0-lVE0EKOWLeCB-55" target="v11jur0-lVE0EKOWLeCB-6" edge="1">
          <mxGeometry relative="1" as="geometry">
            <mxPoint x="757" y="810" as="sourcePoint" />
            <mxPoint x="733" y="660" as="targetPoint" />
          </mxGeometry>
        </mxCell>
        <mxCell id="v11jur0-lVE0EKOWLeCB-67" value="" style="endArrow=none;html=1;rounded=0;" parent="1" source="v11jur0-lVE0EKOWLeCB-56" target="v11jur0-lVE0EKOWLeCB-6" edge="1">
          <mxGeometry relative="1" as="geometry">
            <mxPoint x="854" y="791" as="sourcePoint" />
            <mxPoint x="746" y="660" as="targetPoint" />
          </mxGeometry>
        </mxCell>
        <mxCell id="v11jur0-lVE0EKOWLeCB-68" value="" style="endArrow=none;html=1;rounded=0;" parent="1" source="v11jur0-lVE0EKOWLeCB-51" target="v11jur0-lVE0EKOWLeCB-6" edge="1">
          <mxGeometry relative="1" as="geometry">
            <mxPoint x="904" y="753" as="sourcePoint" />
            <mxPoint x="761" y="660" as="targetPoint" />
          </mxGeometry>
        </mxCell>
        <mxCell id="v11jur0-lVE0EKOWLeCB-69" value="" style="endArrow=none;html=1;rounded=0;" parent="1" source="v11jur0-lVE0EKOWLeCB-59" target="v11jur0-lVE0EKOWLeCB-6" edge="1">
          <mxGeometry relative="1" as="geometry">
            <mxPoint x="922" y="707" as="sourcePoint" />
            <mxPoint x="780" y="657" as="targetPoint" />
          </mxGeometry>
        </mxCell>
        <mxCell id="v11jur0-lVE0EKOWLeCB-70" value="" style="endArrow=none;html=1;rounded=0;" parent="1" source="v11jur0-lVE0EKOWLeCB-60" target="v11jur0-lVE0EKOWLeCB-6" edge="1">
          <mxGeometry relative="1" as="geometry">
            <mxPoint x="911" y="656" as="sourcePoint" />
            <mxPoint x="780" y="644" as="targetPoint" />
          </mxGeometry>
        </mxCell>
        <mxCell id="v11jur0-lVE0EKOWLeCB-71" value="" style="endArrow=none;html=1;rounded=0;" parent="1" source="v11jur0-lVE0EKOWLeCB-61" target="v11jur0-lVE0EKOWLeCB-6" edge="1">
          <mxGeometry relative="1" as="geometry">
            <mxPoint x="915" y="604" as="sourcePoint" />
            <mxPoint x="780" y="630" as="targetPoint" />
          </mxGeometry>
        </mxCell>
        <mxCell id="v11jur0-lVE0EKOWLeCB-72" value="copies" style="ellipse;whiteSpace=wrap;html=1;align=center;" parent="1" vertex="1">
          <mxGeometry x="730" y="210" width="100" height="40" as="geometry" />
        </mxCell>
        <mxCell id="v11jur0-lVE0EKOWLeCB-73" value="" style="endArrow=none;html=1;rounded=0;exitX=1;exitY=0.5;exitDx=0;exitDy=0;" parent="1" source="v11jur0-lVE0EKOWLeCB-37" target="v11jur0-lVE0EKOWLeCB-72" edge="1">
          <mxGeometry relative="1" as="geometry">
            <mxPoint x="440" y="390" as="sourcePoint" />
            <mxPoint x="600" y="390" as="targetPoint" />
          </mxGeometry>
        </mxCell>
        <mxCell id="v11jur0-lVE0EKOWLeCB-74" value="name" style="ellipse;whiteSpace=wrap;html=1;align=center;" parent="1" vertex="1">
          <mxGeometry x="355" y="-110" width="100" height="40" as="geometry" />
        </mxCell>
        <mxCell id="v11jur0-lVE0EKOWLeCB-75" value="city" style="ellipse;whiteSpace=wrap;html=1;align=center;" parent="1" vertex="1">
          <mxGeometry x="310" y="-70" width="100" height="40" as="geometry" />
        </mxCell>
        <mxCell id="v11jur0-lVE0EKOWLeCB-76" value="email" style="ellipse;whiteSpace=wrap;html=1;align=center;" parent="1" vertex="1">
          <mxGeometry x="455" y="-130" width="100" height="40" as="geometry" />
        </mxCell>
        <mxCell id="v11jur0-lVE0EKOWLeCB-77" value="sch_id" style="ellipse;whiteSpace=wrap;html=1;align=center;fontStyle=4;" parent="1" vertex="1">
          <mxGeometry x="285" y="-20" width="100" height="40" as="geometry" />
        </mxCell>
        <mxCell id="v11jur0-lVE0EKOWLeCB-79" value="phone" style="ellipse;shape=doubleEllipse;margin=3;whiteSpace=wrap;html=1;align=center;" parent="1" vertex="1">
          <mxGeometry x="555" y="-120" width="100" height="40" as="geometry" />
        </mxCell>
        <mxCell id="v11jur0-lVE0EKOWLeCB-82" value="" style="endArrow=none;html=1;rounded=0;" parent="1" source="v11jur0-lVE0EKOWLeCB-77" target="v11jur0-lVE0EKOWLeCB-2" edge="1">
          <mxGeometry relative="1" as="geometry">
            <mxPoint x="415" y="280" as="sourcePoint" />
            <mxPoint x="575" y="280" as="targetPoint" />
          </mxGeometry>
        </mxCell>
        <mxCell id="v11jur0-lVE0EKOWLeCB-83" value="" style="endArrow=none;html=1;rounded=0;" parent="1" source="v11jur0-lVE0EKOWLeCB-75" target="v11jur0-lVE0EKOWLeCB-2" edge="1">
          <mxGeometry relative="1" as="geometry">
            <mxPoint x="379" y="25" as="sourcePoint" />
            <mxPoint x="488" y="70" as="targetPoint" />
          </mxGeometry>
        </mxCell>
        <mxCell id="v11jur0-lVE0EKOWLeCB-84" value="" style="endArrow=none;html=1;rounded=0;" parent="1" source="v11jur0-lVE0EKOWLeCB-74" target="v11jur0-lVE0EKOWLeCB-2" edge="1">
          <mxGeometry relative="1" as="geometry">
            <mxPoint x="393" y="-22" as="sourcePoint" />
            <mxPoint x="510" y="70" as="targetPoint" />
          </mxGeometry>
        </mxCell>
        <mxCell id="v11jur0-lVE0EKOWLeCB-85" value="" style="endArrow=none;html=1;rounded=0;" parent="1" source="v11jur0-lVE0EKOWLeCB-76" target="v11jur0-lVE0EKOWLeCB-2" edge="1">
          <mxGeometry relative="1" as="geometry">
            <mxPoint x="428" y="-61" as="sourcePoint" />
            <mxPoint x="521" y="70" as="targetPoint" />
          </mxGeometry>
        </mxCell>
        <mxCell id="v11jur0-lVE0EKOWLeCB-86" value="" style="endArrow=none;html=1;rounded=0;" parent="1" source="v11jur0-lVE0EKOWLeCB-79" target="v11jur0-lVE0EKOWLeCB-2" edge="1">
          <mxGeometry relative="1" as="geometry">
            <mxPoint x="517" y="-80" as="sourcePoint" />
            <mxPoint x="533" y="70" as="targetPoint" />
          </mxGeometry>
        </mxCell>
        <mxCell id="v11jur0-lVE0EKOWLeCB-87" value="" style="endArrow=none;html=1;rounded=0;exitX=0.243;exitY=0.989;exitDx=0;exitDy=0;exitPerimeter=0;" parent="1" source="h0TDxdiVaac0ucg-NrwX-5" target="v11jur0-lVE0EKOWLeCB-2" edge="1">
          <mxGeometry relative="1" as="geometry">
            <mxPoint x="657.9128468456747" y="-41.20413153024242" as="sourcePoint" />
            <mxPoint x="544" y="70" as="targetPoint" />
          </mxGeometry>
        </mxCell>
        <mxCell id="v11jur0-lVE0EKOWLeCB-90" value="" style="endArrow=none;html=1;rounded=0;exitX=0;exitY=1;exitDx=0;exitDy=0;" parent="1" source="h0TDxdiVaac0ucg-NrwX-7" target="v11jur0-lVE0EKOWLeCB-2" edge="1">
          <mxGeometry relative="1" as="geometry">
            <mxPoint x="686.8461990025999" y="11.52810207807579" as="sourcePoint" />
            <mxPoint x="575" y="70" as="targetPoint" />
          </mxGeometry>
        </mxCell>
        <mxCell id="v11jur0-lVE0EKOWLeCB-91" value="authentication" style="shape=ext;margin=3;double=1;whiteSpace=wrap;html=1;align=center;" parent="1" vertex="1">
          <mxGeometry x="65" y="-160" width="100" height="40" as="geometry" />
        </mxCell>
        <mxCell id="v11jur0-lVE0EKOWLeCB-92" value="logins" style="shape=rhombus;double=1;perimeter=rhombusPerimeter;whiteSpace=wrap;html=1;align=center;" parent="1" vertex="1">
          <mxGeometry x="55" y="-55" width="120" height="60" as="geometry" />
        </mxCell>
        <mxCell id="v11jur0-lVE0EKOWLeCB-95" value="" style="endArrow=none;html=1;rounded=0;" parent="1" source="v11jur0-lVE0EKOWLeCB-1" target="v11jur0-lVE0EKOWLeCB-26" edge="1">
          <mxGeometry relative="1" as="geometry">
            <mxPoint x="190" y="350" as="sourcePoint" />
            <mxPoint x="350" y="350" as="targetPoint" />
          </mxGeometry>
        </mxCell>
        <mxCell id="v11jur0-lVE0EKOWLeCB-96" value="N" style="resizable=0;html=1;whiteSpace=wrap;align=left;verticalAlign=bottom;" parent="v11jur0-lVE0EKOWLeCB-95" connectable="0" vertex="1">
          <mxGeometry x="-1" relative="1" as="geometry">
            <mxPoint x="150" y="-10" as="offset" />
          </mxGeometry>
        </mxCell>
        <mxCell id="v11jur0-lVE0EKOWLeCB-97" value="1" style="resizable=0;html=1;whiteSpace=wrap;align=right;verticalAlign=bottom;" parent="v11jur0-lVE0EKOWLeCB-95" connectable="0" vertex="1">
          <mxGeometry x="1" relative="1" as="geometry">
            <mxPoint x="136" y="-12" as="offset" />
          </mxGeometry>
        </mxCell>
        <mxCell id="v11jur0-lVE0EKOWLeCB-101" value="age" style="ellipse;whiteSpace=wrap;html=1;align=center;" parent="1" vertex="1">
          <mxGeometry x="-320" y="-175" width="80" height="30" as="geometry" />
        </mxCell>
        <mxCell id="v11jur0-lVE0EKOWLeCB-103" value="type" style="ellipse;whiteSpace=wrap;html=1;align=center;" parent="1" vertex="1">
          <mxGeometry x="-370" y="-115" width="90" height="30" as="geometry" />
        </mxCell>
        <mxCell id="v11jur0-lVE0EKOWLeCB-104" value="id" style="ellipse;whiteSpace=wrap;html=1;align=center;fontStyle=4;" parent="1" vertex="1">
          <mxGeometry x="-410" y="-55" width="80" height="30" as="geometry" />
        </mxCell>
        <mxCell id="v11jur0-lVE0EKOWLeCB-105" value="" style="endArrow=none;html=1;rounded=0;exitX=0.629;exitY=1.081;exitDx=0;exitDy=0;exitPerimeter=0;" parent="1" source="h0TDxdiVaac0ucg-NrwX-8" target="v11jur0-lVE0EKOWLeCB-1" edge="1">
          <mxGeometry relative="1" as="geometry">
            <mxPoint x="-184.29121348712079" y="-160.12119420658996" as="sourcePoint" />
            <mxPoint x="300" y="390" as="targetPoint" />
          </mxGeometry>
        </mxCell>
        <mxCell id="v11jur0-lVE0EKOWLeCB-106" value="" style="endArrow=none;html=1;rounded=0;" parent="1" source="v11jur0-lVE0EKOWLeCB-103" target="v11jur0-lVE0EKOWLeCB-1" edge="1">
          <mxGeometry relative="1" as="geometry">
            <mxPoint x="140" y="390" as="sourcePoint" />
            <mxPoint x="300" y="390" as="targetPoint" />
          </mxGeometry>
        </mxCell>
        <mxCell id="v11jur0-lVE0EKOWLeCB-107" value="" style="endArrow=none;html=1;rounded=0;" parent="1" source="v11jur0-lVE0EKOWLeCB-104" target="v11jur0-lVE0EKOWLeCB-1" edge="1">
          <mxGeometry relative="1" as="geometry">
            <mxPoint x="106" y="267" as="sourcePoint" />
            <mxPoint x="160" y="360" as="targetPoint" />
          </mxGeometry>
        </mxCell>
        <mxCell id="v11jur0-lVE0EKOWLeCB-108" value="" style="endArrow=none;html=1;rounded=0;" parent="1" source="v11jur0-lVE0EKOWLeCB-101" target="v11jur0-lVE0EKOWLeCB-1" edge="1">
          <mxGeometry relative="1" as="geometry">
            <mxPoint x="37" y="293" as="sourcePoint" />
            <mxPoint x="230" y="362" as="targetPoint" />
          </mxGeometry>
        </mxCell>
        <mxCell id="v11jur0-lVE0EKOWLeCB-109" value="" style="endArrow=none;html=1;rounded=0;" parent="1" source="v11jur0-lVE0EKOWLeCB-48" target="v11jur0-lVE0EKOWLeCB-6" edge="1">
          <mxGeometry relative="1" as="geometry">
            <mxPoint x="410" y="600" as="sourcePoint" />
            <mxPoint x="570" y="600" as="targetPoint" />
          </mxGeometry>
        </mxCell>
        <mxCell id="v11jur0-lVE0EKOWLeCB-110" value="M" style="resizable=0;html=1;whiteSpace=wrap;align=left;verticalAlign=bottom;" parent="v11jur0-lVE0EKOWLeCB-109" connectable="0" vertex="1">
          <mxGeometry x="-1" relative="1" as="geometry">
            <mxPoint x="-50" y="-53" as="offset" />
          </mxGeometry>
        </mxCell>
        <mxCell id="v11jur0-lVE0EKOWLeCB-111" value="N" style="resizable=0;html=1;whiteSpace=wrap;align=right;verticalAlign=bottom;" parent="v11jur0-lVE0EKOWLeCB-109" connectable="0" vertex="1">
          <mxGeometry x="1" relative="1" as="geometry">
            <mxPoint x="-212" y="-60" as="offset" />
          </mxGeometry>
        </mxCell>
        <mxCell id="v11jur0-lVE0EKOWLeCB-112" value="" style="endArrow=none;html=1;rounded=0;" parent="1" source="v11jur0-lVE0EKOWLeCB-1" target="v11jur0-lVE0EKOWLeCB-48" edge="1">
          <mxGeometry relative="1" as="geometry">
            <mxPoint x="410" y="600" as="sourcePoint" />
            <mxPoint x="570" y="600" as="targetPoint" />
          </mxGeometry>
        </mxCell>
        <mxCell id="v11jur0-lVE0EKOWLeCB-114" value="date" style="ellipse;whiteSpace=wrap;html=1;align=center;" parent="1" vertex="1">
          <mxGeometry x="20" y="390" width="90" height="30" as="geometry" />
        </mxCell>
        <mxCell id="v11jur0-lVE0EKOWLeCB-116" value="" style="endArrow=none;html=1;rounded=0;" parent="1" source="v11jur0-lVE0EKOWLeCB-114" target="v11jur0-lVE0EKOWLeCB-48" edge="1">
          <mxGeometry relative="1" as="geometry">
            <mxPoint x="235" y="630" as="sourcePoint" />
            <mxPoint x="395" y="630" as="targetPoint" />
          </mxGeometry>
        </mxCell>
        <mxCell id="v11jur0-lVE0EKOWLeCB-118" value="N" style="endArrow=none;html=1;rounded=0;" parent="1" source="v11jur0-lVE0EKOWLeCB-9" target="v11jur0-lVE0EKOWLeCB-6" edge="1">
          <mxGeometry x="-0.7743" y="14" relative="1" as="geometry">
            <mxPoint x="430" y="590" as="sourcePoint" />
            <mxPoint x="590" y="590" as="targetPoint" />
            <mxPoint as="offset" />
          </mxGeometry>
        </mxCell>
        <mxCell id="v11jur0-lVE0EKOWLeCB-119" value="date" style="ellipse;whiteSpace=wrap;html=1;align=center;" parent="1" vertex="1">
          <mxGeometry x="260" y="235" width="90" height="30" as="geometry" />
        </mxCell>
        <mxCell id="v11jur0-lVE0EKOWLeCB-120" value="" style="endArrow=none;html=1;rounded=0;" parent="1" source="v11jur0-lVE0EKOWLeCB-9" target="v11jur0-lVE0EKOWLeCB-119" edge="1">
          <mxGeometry relative="1" as="geometry">
            <mxPoint x="285" y="590" as="sourcePoint" />
            <mxPoint x="445" y="590" as="targetPoint" />
          </mxGeometry>
        </mxCell>
        <mxCell id="v11jur0-lVE0EKOWLeCB-121" value="return_date" style="ellipse;whiteSpace=wrap;html=1;align=center;" parent="1" vertex="1">
          <mxGeometry x="175" y="205" width="90" height="30" as="geometry" />
        </mxCell>
        <mxCell id="v11jur0-lVE0EKOWLeCB-122" value="" style="endArrow=none;html=1;rounded=0;" parent="1" source="v11jur0-lVE0EKOWLeCB-9" target="v11jur0-lVE0EKOWLeCB-121" edge="1">
          <mxGeometry relative="1" as="geometry">
            <mxPoint x="315" y="410" as="sourcePoint" />
            <mxPoint x="475" y="410" as="targetPoint" />
          </mxGeometry>
        </mxCell>
        <mxCell id="v11jur0-lVE0EKOWLeCB-129" value="card" style="ellipse;whiteSpace=wrap;html=1;align=center;" parent="1" vertex="1">
          <mxGeometry x="-155" y="-210" width="90" height="35" as="geometry" />
        </mxCell>
        <mxCell id="v11jur0-lVE0EKOWLeCB-130" value="" style="endArrow=none;html=1;rounded=0;" parent="1" source="v11jur0-lVE0EKOWLeCB-129" target="v11jur0-lVE0EKOWLeCB-1" edge="1">
          <mxGeometry relative="1" as="geometry">
            <mxPoint x="-290" y="280" as="sourcePoint" />
            <mxPoint x="-130" y="280" as="targetPoint" />
          </mxGeometry>
        </mxCell>
        <mxCell id="v11jur0-lVE0EKOWLeCB-133" value="admins_approval" style="shape=rhombus;perimeter=rhombusPerimeter;whiteSpace=wrap;html=1;align=center;" parent="1" vertex="1">
          <mxGeometry x="-300" y="160" width="120" height="60" as="geometry" />
        </mxCell>
        <mxCell id="v11jur0-lVE0EKOWLeCB-134" value="1" style="endArrow=none;html=1;rounded=0;exitX=0.5;exitY=0;exitDx=0;exitDy=0;" parent="1" source="v11jur0-lVE0EKOWLeCB-133" target="v11jur0-lVE0EKOWLeCB-1" edge="1">
          <mxGeometry x="-0.6147" y="-13" relative="1" as="geometry">
            <mxPoint x="-230" y="350" as="sourcePoint" />
            <mxPoint x="-70" y="350" as="targetPoint" />
            <mxPoint as="offset" />
          </mxGeometry>
        </mxCell>
        <mxCell id="v11jur0-lVE0EKOWLeCB-135" value="N" style="endArrow=none;html=1;rounded=0;exitX=1;exitY=0.5;exitDx=0;exitDy=0;" parent="1" source="v11jur0-lVE0EKOWLeCB-133" target="v11jur0-lVE0EKOWLeCB-1" edge="1">
          <mxGeometry x="-0.6667" y="-7" relative="1" as="geometry">
            <mxPoint x="-205" y="210" as="sourcePoint" />
            <mxPoint x="-100" y="140" as="targetPoint" />
            <mxPoint as="offset" />
          </mxGeometry>
        </mxCell>
        <mxCell id="v11jur0-lVE0EKOWLeCB-136" value="Main_admin" style="text;strokeColor=none;fillColor=none;spacingLeft=4;spacingRight=4;overflow=hidden;rotatable=0;points=[[0,0.5],[1,0.5]];portConstraint=eastwest;fontSize=12;whiteSpace=wrap;html=1;" parent="1" vertex="1">
          <mxGeometry x="-325" y="130" width="90" height="30" as="geometry" />
        </mxCell>
        <mxCell id="v11jur0-lVE0EKOWLeCB-138" value="admins" style="text;strokeColor=none;fillColor=none;spacingLeft=4;spacingRight=4;overflow=hidden;rotatable=0;points=[[0,0.5],[1,0.5]];portConstraint=eastwest;fontSize=12;whiteSpace=wrap;html=1;" parent="1" vertex="1">
          <mxGeometry x="-160" y="180" width="50" height="30" as="geometry" />
        </mxCell>
        <mxCell id="v11jur0-lVE0EKOWLeCB-141" value="review" style="shape=rhombus;perimeter=rhombusPerimeter;whiteSpace=wrap;html=1;align=center;" parent="1" vertex="1">
          <mxGeometry x="-90" y="450" width="100" height="50" as="geometry" />
        </mxCell>
        <mxCell id="v11jur0-lVE0EKOWLeCB-142" value="N" style="endArrow=none;html=1;rounded=0;" parent="1" source="v11jur0-lVE0EKOWLeCB-1" target="v11jur0-lVE0EKOWLeCB-141" edge="1">
          <mxGeometry x="0.8246" y="15" relative="1" as="geometry">
            <mxPoint x="140" y="430" as="sourcePoint" />
            <mxPoint x="300" y="430" as="targetPoint" />
            <mxPoint as="offset" />
          </mxGeometry>
        </mxCell>
        <mxCell id="v11jur0-lVE0EKOWLeCB-143" value="M" style="endArrow=none;html=1;rounded=0;" parent="1" source="v11jur0-lVE0EKOWLeCB-141" target="v11jur0-lVE0EKOWLeCB-6" edge="1">
          <mxGeometry x="-0.7951" y="-17" relative="1" as="geometry">
            <mxPoint x="140" y="430" as="sourcePoint" />
            <mxPoint x="300" y="430" as="targetPoint" />
            <mxPoint as="offset" />
          </mxGeometry>
        </mxCell>
        <mxCell id="v11jur0-lVE0EKOWLeCB-145" value="date" style="ellipse;whiteSpace=wrap;html=1;align=center;" parent="1" vertex="1">
          <mxGeometry x="-180" y="560" width="80" height="30" as="geometry" />
        </mxCell>
        <mxCell id="v11jur0-lVE0EKOWLeCB-146" value="score" style="ellipse;whiteSpace=wrap;html=1;align=center;" parent="1" vertex="1">
          <mxGeometry x="-230" y="500" width="80" height="30" as="geometry" />
        </mxCell>
        <mxCell id="v11jur0-lVE0EKOWLeCB-147" value="description" style="ellipse;whiteSpace=wrap;html=1;align=center;" parent="1" vertex="1">
          <mxGeometry x="-57.5" y="575" width="80" height="30" as="geometry" />
        </mxCell>
        <mxCell id="v11jur0-lVE0EKOWLeCB-148" value="" style="endArrow=none;html=1;rounded=0;" parent="1" source="v11jur0-lVE0EKOWLeCB-146" target="v11jur0-lVE0EKOWLeCB-141" edge="1">
          <mxGeometry relative="1" as="geometry">
            <mxPoint x="140" y="430" as="sourcePoint" />
            <mxPoint x="300" y="430" as="targetPoint" />
          </mxGeometry>
        </mxCell>
        <mxCell id="v11jur0-lVE0EKOWLeCB-149" value="" style="endArrow=none;html=1;rounded=0;" parent="1" source="v11jur0-lVE0EKOWLeCB-145" target="v11jur0-lVE0EKOWLeCB-141" edge="1">
          <mxGeometry relative="1" as="geometry">
            <mxPoint x="-217" y="593" as="sourcePoint" />
            <mxPoint x="-134" y="548" as="targetPoint" />
          </mxGeometry>
        </mxCell>
        <mxCell id="v11jur0-lVE0EKOWLeCB-150" value="" style="endArrow=none;html=1;rounded=0;" parent="1" source="v11jur0-lVE0EKOWLeCB-147" target="v11jur0-lVE0EKOWLeCB-141" edge="1">
          <mxGeometry relative="1" as="geometry">
            <mxPoint x="-162" y="630" as="sourcePoint" />
            <mxPoint x="-121" y="555" as="targetPoint" />
          </mxGeometry>
        </mxCell>
        <mxCell id="h0TDxdiVaac0ucg-NrwX-2" value="approved" style="ellipse;whiteSpace=wrap;html=1;align=center;" parent="1" vertex="1">
          <mxGeometry x="-390" y="5" width="70" height="30" as="geometry" />
        </mxCell>
        <mxCell id="h0TDxdiVaac0ucg-NrwX-3" value="" style="endArrow=none;html=1;rounded=0;exitX=1;exitY=0.5;exitDx=0;exitDy=0;entryX=0;entryY=0;entryDx=0;entryDy=0;" parent="1" source="h0TDxdiVaac0ucg-NrwX-2" target="v11jur0-lVE0EKOWLeCB-1" edge="1">
          <mxGeometry relative="1" as="geometry">
            <mxPoint x="70" y="150" as="sourcePoint" />
            <mxPoint x="230" y="150" as="targetPoint" />
          </mxGeometry>
        </mxCell>
        <mxCell id="h0TDxdiVaac0ucg-NrwX-5" value="principal_name" style="ellipse;whiteSpace=wrap;html=1;align=center;" parent="1" vertex="1">
          <mxGeometry x="630" y="-80" width="100" height="40" as="geometry" />
        </mxCell>
        <mxCell id="h0TDxdiVaac0ucg-NrwX-7" value="address" style="ellipse;whiteSpace=wrap;html=1;align=center;" parent="1" vertex="1">
          <mxGeometry x="680" y="-30" width="100" height="40" as="geometry" />
        </mxCell>
        <mxCell id="h0TDxdiVaac0ucg-NrwX-8" value="name" style="ellipse;whiteSpace=wrap;html=1;align=center;" parent="1" vertex="1">
          <mxGeometry x="-250" y="-210" width="80" height="30" as="geometry" />
        </mxCell>
        <mxCell id="h0TDxdiVaac0ucg-NrwX-9" value="" style="endArrow=none;html=1;rounded=0;entryX=0;entryY=0;entryDx=0;entryDy=0;" parent="1" source="h0TDxdiVaac0ucg-NrwX-11" target="h0TDxdiVaac0ucg-NrwX-8" edge="1">
          <mxGeometry relative="1" as="geometry">
            <mxPoint x="-270" y="-260" as="sourcePoint" />
            <mxPoint x="10" y="-130" as="targetPoint" />
          </mxGeometry>
        </mxCell>
        <mxCell id="h0TDxdiVaac0ucg-NrwX-10" value="" style="endArrow=none;html=1;rounded=0;entryX=0.704;entryY=-0.001;entryDx=0;entryDy=0;entryPerimeter=0;exitX=0.399;exitY=1.007;exitDx=0;exitDy=0;exitPerimeter=0;" parent="1" source="h0TDxdiVaac0ucg-NrwX-12" target="h0TDxdiVaac0ucg-NrwX-8" edge="1">
          <mxGeometry relative="1" as="geometry">
            <mxPoint x="-170" y="-260" as="sourcePoint" />
            <mxPoint x="10" y="-130" as="targetPoint" />
          </mxGeometry>
        </mxCell>
        <mxCell id="h0TDxdiVaac0ucg-NrwX-11" value="first_name" style="ellipse;whiteSpace=wrap;html=1;align=center;" parent="1" vertex="1">
          <mxGeometry x="-320" y="-290" width="80" height="30" as="geometry" />
        </mxCell>
        <mxCell id="h0TDxdiVaac0ucg-NrwX-12" value="last_name" style="ellipse;whiteSpace=wrap;html=1;align=center;" parent="1" vertex="1">
          <mxGeometry x="-210" y="-290" width="80" height="30" as="geometry" />
        </mxCell>
        <mxCell id="h0TDxdiVaac0ucg-NrwX-13" value="" style="endArrow=none;html=1;rounded=0;entryX=0.305;entryY=0.185;entryDx=0;entryDy=0;entryPerimeter=0;" parent="1" target="v11jur0-lVE0EKOWLeCB-9" edge="1">
          <mxGeometry relative="1" as="geometry">
            <mxPoint x="-60.00222222222217" y="125.86" as="sourcePoint" />
            <mxPoint x="145.01054054054063" y="314.1370270270271" as="targetPoint" />
          </mxGeometry>
        </mxCell>
        <mxCell id="h0TDxdiVaac0ucg-NrwX-14" value="1" style="resizable=0;html=1;whiteSpace=wrap;align=right;verticalAlign=bottom;" parent="h0TDxdiVaac0ucg-NrwX-13" connectable="0" vertex="1">
          <mxGeometry x="1" relative="1" as="geometry">
            <mxPoint x="-14" y="-19" as="offset" />
          </mxGeometry>
        </mxCell>
        <mxCell id="h0TDxdiVaac0ucg-NrwX-15" value="borrow_limit" style="ellipse;whiteSpace=wrap;html=1;align=center;dashed=1;" parent="1" vertex="1">
          <mxGeometry x="-60" y="-160" width="85" height="30" as="geometry" />
        </mxCell>
        <mxCell id="h0TDxdiVaac0ucg-NrwX-16" value="" style="endArrow=none;html=1;rounded=0;exitX=0.643;exitY=0.003;exitDx=0;exitDy=0;exitPerimeter=0;entryX=0.5;entryY=1;entryDx=0;entryDy=0;" parent="1" source="v11jur0-lVE0EKOWLeCB-1" target="h0TDxdiVaac0ucg-NrwX-15" edge="1">
          <mxGeometry relative="1" as="geometry">
            <mxPoint x="-30" y="-90" as="sourcePoint" />
            <mxPoint x="130" y="-90" as="targetPoint" />
          </mxGeometry>
        </mxCell>
        <mxCell id="h0TDxdiVaac0ucg-NrwX-17" value="" style="endArrow=none;html=1;rounded=0;exitX=0.413;exitY=1.027;exitDx=0;exitDy=0;exitPerimeter=0;" parent="1" source="v11jur0-lVE0EKOWLeCB-2" target="v11jur0-lVE0EKOWLeCB-37" edge="1">
          <mxGeometry relative="1" as="geometry">
            <mxPoint x="460" y="160" as="sourcePoint" />
            <mxPoint x="620" y="160" as="targetPoint" />
          </mxGeometry>
        </mxCell>
        <mxCell id="h0TDxdiVaac0ucg-NrwX-18" value="1" style="resizable=0;html=1;whiteSpace=wrap;align=right;verticalAlign=bottom;" parent="h0TDxdiVaac0ucg-NrwX-17" connectable="0" vertex="1">
          <mxGeometry x="1" relative="1" as="geometry">
            <mxPoint x="3" y="-17" as="offset" />
          </mxGeometry>
        </mxCell>
        <mxCell id="Y2xQt7GFixTGdxi2UHiJ-2" value="total_borrows" style="ellipse;whiteSpace=wrap;html=1;align=center;" parent="1" vertex="1">
          <mxGeometry x="710" y="35" width="80" height="40" as="geometry" />
        </mxCell>
        <mxCell id="Y2xQt7GFixTGdxi2UHiJ-3" value="" style="endArrow=none;html=1;rounded=0;entryX=0;entryY=0.5;entryDx=0;entryDy=0;exitX=1;exitY=0;exitDx=0;exitDy=0;" parent="1" source="v11jur0-lVE0EKOWLeCB-2" target="Y2xQt7GFixTGdxi2UHiJ-2" edge="1">
          <mxGeometry relative="1" as="geometry">
            <mxPoint x="430" y="70" as="sourcePoint" />
            <mxPoint x="590" y="70" as="targetPoint" />
          </mxGeometry>
        </mxCell>
        <mxCell id="OkQhnF_Oo1T6ntO3gxTV-1" value="approved" style="ellipse;whiteSpace=wrap;html=1;align=center;" parent="1" vertex="1">
          <mxGeometry x="25" y="545" width="90" height="30" as="geometry" />
        </mxCell>
        <mxCell id="OkQhnF_Oo1T6ntO3gxTV-2" value="" style="endArrow=none;html=1;rounded=0;exitX=1;exitY=1;exitDx=0;exitDy=0;entryX=0.273;entryY=0.027;entryDx=0;entryDy=0;entryPerimeter=0;" parent="1" source="v11jur0-lVE0EKOWLeCB-141" target="OkQhnF_Oo1T6ntO3gxTV-1" edge="1">
          <mxGeometry relative="1" as="geometry">
            <mxPoint x="80" y="460" as="sourcePoint" />
            <mxPoint x="240" y="460" as="targetPoint" />
          </mxGeometry>
        </mxCell>
        <mxCell id="0Emu6A0kMdrLriNWM9Qn-1" value="active" style="ellipse;whiteSpace=wrap;html=1;align=center;" vertex="1" parent="1">
          <mxGeometry x="320" y="280" width="80" height="30" as="geometry" />
        </mxCell>
        <mxCell id="0Emu6A0kMdrLriNWM9Qn-2" value="" style="endArrow=none;html=1;rounded=0;exitX=1;exitY=0.5;exitDx=0;exitDy=0;entryX=0;entryY=0.5;entryDx=0;entryDy=0;" edge="1" parent="1" source="v11jur0-lVE0EKOWLeCB-9" target="0Emu6A0kMdrLriNWM9Qn-1">
          <mxGeometry relative="1" as="geometry">
            <mxPoint x="300" y="310" as="sourcePoint" />
            <mxPoint x="460" y="310" as="targetPoint" />
          </mxGeometry>
        </mxCell>
      </root>
    </mxGraphModel>
  </diagram>
</mxfile>
